<svg xmlns="http://www.w3.org/2000/svg" width="126.36" height="70.48" viewBox="-20 -50.480000000000004 126.36 70.48"><g><text x="-9.68" y="-30" font-size="2" fill="darkgreen">Add=next</text><text x="-9.68" y="-32" font-size="2" fill="darkgreen">Swap=0</text><g transform="translate(20.32,0)"><g stroke="darkred"><line x1="-2.54" y1="-5.08" x2="-2.54" y2="5.08" stroke-width="0.4064"/><line x1="-2.54" y1="-2.54" x2="1.778" y2="-2.54" stroke-width="0.1524"/><line x1="-2.54" y1="2.54" x2="1.778" y2="2.54" stroke-width="0.1524"/><line x1="-2.54" y1="5.08" x2="-2.54" y2="-5.08" stroke-width="0.4064"/></g><g><g><line x1="-2.62" y1="-2.54" x2="-7.62" y2="-2.54" stroke-width="0.2" stroke="darkred"/><text x="-0.1200000000000001" y="-1.54" font-size="2" fill="dimgray">I0</text><text x="-7.62" y="-3.04" font-size="1" fill="green">in 0</text><circle cx="-7.62" cy="-2.54" r="1" stroke="green" stroke-width="0.1" fill="none"/></g><g><line x1="-2.62" y1="2.54" x2="-7.62" y2="2.54" stroke-width="0.2" stroke="darkred"/><text x="-0.1200000000000001" y="3.54" font-size="2" fill="dimgray">I1</text><text x="-7.62" y="2.04" font-size="1" fill="green">in 0</text><circle cx="-7.62" cy="2.54" r="1" stroke="green" stroke-width="0.1" fill="none"/></g><g><line x1="2.62" y1="0" x2="7.62" y2="0" stroke-width="0.2" stroke="darkred"/><text x="-4.88" y="1" font-size="2" fill="dimgray">O</text><text x="7.62" y="-0.5" font-size="1" fill="green">out 0</text><circle cx="7.62" cy="0" r="1" stroke="green" stroke-width="0.1" fill="none"/><circle cx="3.62" cy="0" r="1" stroke="darkred" stroke-width="0.2" fill="white"/></g></g><text x="2.54" y="-3.175" font-size="1.778" fill="dimgray">A</text><text x="2.54" y="5.08" font-size="1.778" fill="dimgray">&gt;VALUE</text></g><text x="-9.68" y="-14.76" font-size="2" fill="darkgreen">Add=next</text><text x="-9.68" y="-16.759999999999998" font-size="2" fill="darkgreen">Swap=0</text><g transform="translate(20.32,-15.24)"><g stroke="darkred"><line x1="-2.54" y1="-5.08" x2="-2.54" y2="5.08" stroke-width="0.4064"/><line x1="-2.54" y1="-2.54" x2="1.778" y2="-2.54" stroke-width="0.1524"/><line x1="-2.54" y1="2.54" x2="1.778" y2="2.54" stroke-width="0.1524"/><line x1="-2.54" y1="5.08" x2="-2.54" y2="-5.08" stroke-width="0.4064"/></g><g><g><line x1="-2.62" y1="-2.54" x2="-7.62" y2="-2.54" stroke-width="0.2" stroke="darkred"/><text x="-0.1200000000000001" y="-1.54" font-size="2" fill="dimgray">I0</text><text x="-7.62" y="-3.04" font-size="1" fill="green">in 0</text><circle cx="-7.62" cy="-2.54" r="1" stroke="green" stroke-width="0.1" fill="none"/></g><g><line x1="-2.62" y1="2.54" x2="-7.62" y2="2.54" stroke-width="0.2" stroke="darkred"/><text x="-0.1200000000000001" y="3.54" font-size="2" fill="dimgray">I1</text><text x="-7.62" y="2.04" font-size="1" fill="green">in 0</text><circle cx="-7.62" cy="2.54" r="1" stroke="green" stroke-width="0.1" fill="none"/></g><g><line x1="2.62" y1="0" x2="7.62" y2="0" stroke-width="0.2" stroke="darkred"/><text x="-4.88" y="1" font-size="2" fill="dimgray">O</text><text x="7.62" y="-0.5" font-size="1" fill="green">out 0</text><circle cx="7.62" cy="0" r="1" stroke="green" stroke-width="0.1" fill="none"/><circle cx="3.62" cy="0" r="1" stroke="darkred" stroke-width="0.2" fill="white"/></g></g><text x="2.54" y="-3.175" font-size="1.778" fill="dimgray">B</text><text x="2.54" y="5.08" font-size="1.778" fill="dimgray">&gt;VALUE</text></g><text x="13.18" y="-30" font-size="2" fill="darkgreen">Add=next</text><text x="13.18" y="-32" font-size="2" fill="darkgreen">Swap=0</text><g transform="translate(43.18,0)"><g stroke="darkred"><line x1="-2.54" y1="-5.08" x2="-2.54" y2="5.08" stroke-width="0.4064"/><line x1="-2.54" y1="-2.54" x2="1.778" y2="-2.54" stroke-width="0.1524"/><line x1="-2.54" y1="2.54" x2="1.778" y2="2.54" stroke-width="0.1524"/><line x1="-2.54" y1="5.08" x2="-2.54" y2="-5.08" stroke-width="0.4064"/></g><g><g><line x1="-2.62" y1="-2.54" x2="-7.62" y2="-2.54" stroke-width="0.2" stroke="darkred"/><text x="-0.1200000000000001" y="-1.54" font-size="2" fill="dimgray">I0</text><text x="-7.62" y="-3.04" font-size="1" fill="green">in 0</text><circle cx="-7.62" cy="-2.54" r="1" stroke="green" stroke-width="0.1" fill="none"/></g><g><line x1="-2.62" y1="2.54" x2="-7.62" y2="2.54" stroke-width="0.2" stroke="darkred"/><text x="-0.1200000000000001" y="3.54" font-size="2" fill="dimgray">I1</text><text x="-7.62" y="2.04" font-size="1" fill="green">in 0</text><circle cx="-7.62" cy="2.54" r="1" stroke="green" stroke-width="0.1" fill="none"/></g><g><line x1="2.62" y1="0" x2="7.62" y2="0" stroke-width="0.2" stroke="darkred"/><text x="-4.88" y="1" font-size="2" fill="dimgray">O</text><text x="7.62" y="-0.5" font-size="1" fill="green">out 0</text><circle cx="7.62" cy="0" r="1" stroke="green" stroke-width="0.1" fill="none"/><circle cx="3.62" cy="0" r="1" stroke="darkred" stroke-width="0.2" fill="white"/></g></g><text x="2.54" y="-3.175" font-size="1.778" fill="dimgray">C</text><text x="2.54" y="5.08" font-size="1.778" fill="dimgray">&gt;VALUE</text></g><text x="13.18" y="-14.76" font-size="2" fill="darkgreen">Add=next</text><text x="13.18" y="-16.759999999999998" font-size="2" fill="darkgreen">Swap=0</text><g transform="translate(43.18,-15.24)"><g stroke="darkred"><line x1="-2.54" y1="-5.08" x2="-2.54" y2="5.08" stroke-width="0.4064"/><line x1="-2.54" y1="-2.54" x2="1.778" y2="-2.54" stroke-width="0.1524"/><line x1="-2.54" y1="2.54" x2="1.778" y2="2.54" stroke-width="0.1524"/><line x1="-2.54" y1="5.08" x2="-2.54" y2="-5.08" stroke-width="0.4064"/></g><g><g><line x1="-2.62" y1="-2.54" x2="-7.62" y2="-2.54" stroke-width="0.2" stroke="darkred"/><text x="-0.1200000000000001" y="-1.54" font-size="2" fill="dimgray">I0</text><text x="-7.62" y="-3.04" font-size="1" fill="green">in 0</text><circle cx="-7.62" cy="-2.54" r="1" stroke="green" stroke-width="0.1" fill="none"/></g><g><line x1="-2.62" y1="2.54" x2="-7.62" y2="2.54" stroke-width="0.2" stroke="darkred"/><text x="-0.1200000000000001" y="3.54" font-size="2" fill="dimgray">I1</text><text x="-7.62" y="2.04" font-size="1" fill="green">in 0</text><circle cx="-7.62" cy="2.54" r="1" stroke="green" stroke-width="0.1" fill="none"/></g><g><line x1="2.62" y1="0" x2="7.62" y2="0" stroke-width="0.2" stroke="darkred"/><text x="-4.88" y="1" font-size="2" fill="dimgray">O</text><text x="7.62" y="-0.5" font-size="1" fill="green">out 0</text><circle cx="7.62" cy="0" r="1" stroke="green" stroke-width="0.1" fill="none"/><circle cx="3.62" cy="0" r="1" stroke="darkred" stroke-width="0.2" fill="white"/></g></g><text x="2.54" y="-3.175" font-size="1.778" fill="dimgray">D</text><text x="2.54" y="5.08" font-size="1.778" fill="dimgray">&gt;VALUE</text></g><text x="-30" y="-24.92" font-size="2" fill="darkgreen">Add=next</text><text x="-30" y="-26.92" font-size="2" fill="darkgreen">Swap=0</text><g transform="translate(0,-5.08)"><g stroke="darkred"/><g><g><line x1="5" y1="7.62" x2="0" y2="7.62" stroke-width="0.2" stroke="darkred"/><text x="7.5" y="8.620000000000001" font-size="2" fill="dimgray">VSS</text><text x="0" y="7.12" font-size="1" fill="green">pwr 0</text><circle cx="0" cy="7.62" r="1" stroke="green" stroke-width="0.1" fill="none"/></g><g><line x1="5" y1="-7.62" x2="0" y2="-7.62" stroke-width="0.2" stroke="darkred"/><text x="7.5" y="-6.62" font-size="2" fill="dimgray">VDD</text><text x="0" y="-8.120000000000001" font-size="1" fill="green">pwr 0</text><circle cx="0" cy="-7.62" r="1" stroke="green" stroke-width="0.1" fill="none"/></g></g><text x="-1.27" y="0.635" font-size="1.778" fill="dimgray">P</text><text x="1.905" y="-2.54" font-size="1.27" fill="dimgray">VDD</text><text x="1.905" y="5.842" font-size="1.27" fill="dimgray">VSS</text></g></g></svg>